<svg id="Слой_1" data-name="Слой 1" xmlns="http://www.w3.org/2000/svg" viewBox="0 0 550.68 37.79"><defs><style>.cls-1{fill:#1c1b1a;}.cls-2{fill:#fff;}</style></defs><path class="cls-1" d="M866.89,552.06,685,544.7l181.9-7.37s-1.54,5.75-1.54,7.39C865.35,546.76,866.89,552.06,866.89,552.06Z" transform="translate(-684.99 -519.72)"/><path class="cls-2" d="M858.46,547.91l-101.32-3,101.32-3a17.46,17.46,0,0,0-.85,3A13.54,13.54,0,0,0,858.46,547.91Z" transform="translate(-684.99 -519.72)"/><path class="cls-1" d="M1053.78,553.29l181.89-7.37-181.89-7.36s2.3,6.08,2.3,7.83C1056.08,548.32,1053.78,553.29,1053.78,553.29Z" transform="translate(-684.99 -519.72)"/><path class="cls-2" d="M1062.75,548.74l101.33-3-101.33-3a17.47,17.47,0,0,1,.86,3A13.46,13.46,0,0,1,1062.75,548.74Z" transform="translate(-684.99 -519.72)"/><path class="cls-1" d="M886,544.9c0,4.3-3.19,7.78-7.13,7.78s-7.13-3.48-7.13-7.78,3.19-7.77,7.13-7.77S886,540.61,886,544.9Z" transform="translate(-684.99 -519.72)"/><path class="cls-1" d="M1035,546.13c0,4.29,3.19,7.77,7.13,7.77s7.13-3.48,7.13-7.77-3.19-7.77-7.13-7.77S1035,541.84,1035,546.13Z" transform="translate(-684.99 -519.72)"/><path class="cls-1" d="M944.5,545.3c6.23-1.58,5.43-9.75,1.78-11a2.61,2.61,0,0,0-2.15.72c-1.24,3.25,3,1.46,3.79,3.14,1.18,2.49-1.43,6.45-4.42,6.45a5.46,5.46,0,0,1-3.44-1.74c-4.5-4.35-3-13.07,4.24-14.17,4.89-.74,9.05,3.56,11,7.93.18.42.34.83.48,1.24a3,3,0,0,1,1.22-.26,2.79,2.79,0,0,1,.58.07c-1.9-10.64-15.66-16.18-20.73-4.11C934.33,539.48,939,546.7,944.5,545.3Z" transform="translate(-684.99 -519.72)"/><path class="cls-1" d="M957,544.5a3,3,0,0,1-.75-.09c-1.29,5.33-6.72,8.66-12,9.35a26.54,26.54,0,0,1-3.09,0c-4.69-.35-8-2.18-9.77-4-2.14-2.27-7.14-9.08-3.17-14.19.11-.14-.58-.83-1.27-1.08a3.66,3.66,0,0,0-1.51,0,4.3,4.3,0,0,0-2.93,2.48c-2,3.64,2.25,9.07,5.5,11.81-8.57-6.11-16.37-14.66-27-13.49-9.61,1-16.6,17-5.65,21.51,10.16,4.21,12.83-9.82,5.71-10.14-2.6-.11-2.39,3.14-1.21,2.91,3.86-.73,5.32,9.41-3.78,6-5.42-2-5.49-10.28-3-14.19,8.45-13.53,24,2.21,30.08,6.93,5.06,4,10.62,7.1,16.74,7.34a18.56,18.56,0,0,0,5.11-.4c4.7-1.06,9.52-4,11.62-9,.24-.58.43-1.15.6-1.71Z" transform="translate(-684.99 -519.72)"/><path class="cls-1" d="M919.12,533.31a2.44,2.44,0,1,1-2.43-2.57A2.5,2.5,0,0,1,919.12,533.31Z" transform="translate(-684.99 -519.72)"/><path class="cls-1" d="M1004.5,532.15a2.43,2.43,0,1,1-2.43-2.57A2.49,2.49,0,0,1,1004.5,532.15Z" transform="translate(-684.99 -519.72)"/><path class="cls-1" d="M963.24,537.47a3.05,3.05,0,0,1,1.32.29c.13-.38.28-.77.45-1.16,1.92-4.37,6.08-8.67,11-7.93,7.26,1.1,8.74,9.82,4.24,14.17a5.43,5.43,0,0,1-3.44,1.74c-3,0-5.6-4-4.42-6.45.81-1.68,5,.11,3.79-3.14a2.6,2.6,0,0,0-2.15-.72c-3.65,1.28-4.44,9.45,1.78,11,5.49,1.4,10.18-5.82,7.68-11.76-5.05-12-18.72-6.57-20.7,4A3.71,3.71,0,0,1,963.24,537.47Z" transform="translate(-684.99 -519.72)"/><path class="cls-1" d="M1019.34,535.22c-10.68-1.17-18.48,7.38-27,13.49,3.24-2.74,7.51-8.17,5.49-11.81a4.3,4.3,0,0,0-2.93-2.48,3.61,3.61,0,0,0-1.5,0c-.7.25-1.39.94-1.28,1.08,4,5.11-1,11.92-3.17,14.19-1.75,1.85-5.08,3.68-9.77,4a26.37,26.37,0,0,1-3.08,0c-5.32-.69-10.8-4.08-12-9.47a3.37,3.37,0,0,1-.8.1h-.09a15.13,15.13,0,0,0,.63,1.82c2.09,5,6.91,8,11.61,9a18.59,18.59,0,0,0,5.11.4c6.12-.24,11.68-3.39,16.74-7.34,6-4.72,21.64-20.46,30.08-6.93,2.45,3.91,2.37,12.18-3,14.19-9.1,3.37-7.63-6.77-3.77-6,1.17.23,1.38-3-1.22-2.91-7.12.32-4.44,14.35,5.71,10.14C1035.94,552.19,1029,536.27,1019.34,535.22Z" transform="translate(-684.99 -519.72)"/><path class="cls-1" d="M964.83,553.39c-.58-1.26-2-1.9-3.1-2.46-.2-.1-.47-.2-.73-.31a1.85,1.85,0,0,0,.76-.76c.77-1.55-.24-3.94-1.86-4-1.15,0-2.53,2.45-1.77,4a1.8,1.8,0,0,0,.76.76c-.27.11-.53.21-.73.31-1.12.56-2.52,1.2-3.1,2.46s1.05,2.19,2.52,1.93a1.51,1.51,0,0,0,.4-2.83c-.36-.23-1.33.56-1,.8a1.3,1.3,0,0,1,.73,1c.1.66-.88,1.28-2,.4-.63-.49.4-1.66.89-2.06.83-.67,2.12-1.8,3.09-1.8h.36c1,0,2.31,1.11,3.14,1.78.49.39,1.54,1.75.91,2.23-.18.13-2.24.52-2-.56a1.38,1.38,0,0,1,.73-1c.38-.24-.59-1-1-.8a1.51,1.51,0,0,0,.41,2.83C963.78,555.58,965.47,554.78,964.83,553.39Zm-6.21-5.1c.24-1.37.81-2,1.34-2s1.28.9,1.45,2.08c0,0,.16,2.2-1.46,2.1C958.81,550.36,958.44,549.25,958.62,548.29Z" transform="translate(-684.99 -519.72)"/><path class="cls-1" d="M965.71,540.1a1.32,1.32,0,0,1-1.43,1.25h-8.56a1.31,1.31,0,0,1-1.42-1.25h0a1.31,1.31,0,0,1,1.42-1.25h8.56a1.32,1.32,0,0,1,1.43,1.25Z" transform="translate(-684.99 -519.72)"/><polygon class="cls-1" points="275.83 16.62 274.19 16.62 271.31 6.6 278.81 6.6 275.83 16.62"/><path class="cls-1" d="M962.51,522.62a2.67,2.67,0,1,1-2.66-2.9A2.79,2.79,0,0,1,962.51,522.62Z" transform="translate(-684.99 -519.72)"/></svg>