<svg id="Слой_1" data-name="Слой 1" xmlns="http://www.w3.org/2000/svg" viewBox="0 0 1398.5 391.9"><defs><style>.cls-1{fill:#231f20;}.cls-2{fill:#f2edda;}.cls-3{fill:#1e1d14;}.cls-4{font-size:86.05px;font-family:CenturyGothic, Century Gothic;}</style></defs><rect class="cls-1" y="151.49" width="1396.91" height="4.78"/><rect class="cls-1" y="172.22" width="1396.91" height="1.59"/><rect class="cls-1" x="1.59" y="304.57" width="1396.91" height="4.78"/><rect class="cls-1" x="1.59" y="287.03" width="1396.91" height="1.59"/><path class="cls-1" d="M1324.1,421.84c-4.92-4.29-15.92-3.07-18.85,4.37a3.3,3.3,0,0,0,3.79,4.47,8,8,0,0,0,4.2-3.24c1.44-1.83,6.24-5.44,10.49.67,3.76,5.4-6.45,12.16-10.37,13-7.83,1.64-11.81,1.53-17,.44-12.63-2.66-21.9-7.5-32-13.55-33.75-20.18-52.57-57.8-85.36-79.2-21.3-13.9-48.56-23.81-74-16.92-25.83,7-37.79,31.8-40.43,56.59-.21,1.9,2-3.56,2.5-4.72,6.77-16,14.94-25.58,31.56-26.5,13-.72,27.15,4.71,34,16.26,7.91,13.43,10.79,35.13-3.06,46.06-12.25,9.66-29.7,12-44.88,10.78-25.73-2.13-46.32-17.89-60-39.76-11-17.62-20.16-40-13.69-60.62,8.05-25.72,32-23.43,55.28-18.51,1.3.27,10.22,3,8.77,2.25-29.67-15-73.36-9.55-100.41,7.76-15.18,9.71-29.55,24-34.95,41.49-9.81-1.89-20.2-1.44-29,3.67-9.55,5.56-15.5,14.19-18.84,24.24-3.34-10.05-9.29-18.68-18.84-24.24-8.78-5.11-19.16-5.57-29-3.67-5.41-17.46-19.77-31.78-35-41.49C782,304.14,738.3,298.7,708.63,313.69c-1.45.73,7.46-2,8.77-2.26,23.25-4.91,47.22-7.2,55.28,18.52,6.47,20.64-2.7,43-13.69,60.62-13.64,21.87-34.23,37.62-60,39.76-15.18,1.26-32.63-1.12-44.88-10.79-13.86-10.93-11-32.62-3.06-46.05,6.8-11.55,21-17,33.95-16.26,16.61.92,24.78,10.55,31.56,26.49.5,1.17,2.7,6.63,2.5,4.73-2.65-24.79-14.61-49.61-40.44-56.6-25.47-6.88-52.73,3-74,16.93-32.8,21.4-51.61,59-85.37,79.19-10.13,6.06-19.4,10.9-32,13.56-5.19,1.09-9.17,1.2-17-.44-3.92-.82-14.13-7.58-10.38-13,4.26-6.11,9.05-2.5,10.5-.67a8,8,0,0,0,4.2,3.24,3.29,3.29,0,0,0,3.78-4.47c-2.92-7.44-13.93-8.66-18.85-4.37-9.46,8.26-6.2,18.16,2.1,23,8,4.7,25.32,1.74,33.35-.93,30.19-10,50.71-33.34,72.16-56.08,23.49-24.89,48.25-46,83.06-52.22,13.26-2.39,28.49-2.64,40.48,3.87,12.24,6.65,18.78,19.11,22.2,32.13-8.73-13.34-24.91-20.51-41.93-17.14-29,5.72-38.08,38.38-24.49,59.44,13.76,21.31,46.88,23.05,69,18,23.24-5.34,41.68-22.91,52.57-43.53,9.86-18.67,15.92-45.27,4.8-64.78a33.12,33.12,0,0,0-20-16.06c37.81.45,79.15,21.66,89.91,55.88-2.22.54-6,1.34-8.08,2.07-15.44,5.35-28.81,16.69-34.69,32.12-3.35,8.8-2.88,20.51,4.7,27,8.43,7.25,18,2.17,24.73-4.83,10.15-10.57,16.46-26.26,16.86-40.82A49,49,0,0,0,845,366.91c1.71-.39,3.42-.73,5.13-1,21.07-3.12,35.71,9.83,39.86,29.95,0,.15.49,2,1.77,2s1.73-1.86,1.76-2c4.15-20.12,18.8-33.07,39.87-29.95,1.71.26,3.42.6,5.12,1A48.52,48.52,0,0,0,937.37,379c.39,14.56,6.71,30.26,16.85,40.82,6.73,7,16.3,12.08,24.73,4.83,7.59-6.53,8.06-18.24,4.71-27-5.88-15.43-19.26-26.77-34.69-32.11-2.11-.73-5.87-1.54-8.08-2.08,10.76-34.22,52.1-55.43,89.91-55.87a33.12,33.12,0,0,0-20,16.05c-11.11,19.51-5,46.11,4.81,64.78,10.89,20.62,29.33,38.19,52.57,43.53,22.13,5.09,55.25,3.36,69-18,13.59-21.06,4.5-53.72-24.5-59.44-17-3.37-33.19,3.8-41.92,17.15,3.41-13,10-25.49,22.2-32.14,12-6.51,27.22-6.26,40.48-3.87,34.81,6.26,59.56,27.34,83,52.23,21.46,22.73,42,46,72.16,56.07,8,2.67,25.31,5.63,33.36.93C1330.31,440,1333.57,430.1,1324.1,421.84ZM844,386.51c-2.56,14-11.76,32.67-25.65,38.28-7.2,2.9-14.39-5.32-15.81-12.23-1.64-7.92,1.07-13.7,5.07-20.36,7.44-12.36,22-21,35.86-24.82A46.86,46.86,0,0,1,844,386.51ZM976,392.21c4,6.65,6.7,12.43,5.07,20.35-1.43,6.91-8.61,15.13-15.81,12.23-13.89-5.61-23.09-24.29-25.65-38.27a46.91,46.91,0,0,1,.53-19.14C953.92,371.23,968.51,379.84,976,392.21Z" transform="translate(-192.5 -304.66)"/><polygon class="cls-1" points="719.18 32.69 698.45 55.81 678.52 33.49 698.98 0 719.18 32.69"/><polygon class="cls-2" points="712.4 36.57 698.38 53.42 684.9 37.15 698.74 12.76 712.4 36.57"/><path class="cls-1" d="M906.07,411.49c-7.11,7.51,3.42,19.36,11,12,2-2,2.28-6.66-2.51-6.22-2.19.2-3.19,2.52-2.85,5.51-7.85-3.06-5.06-16.88,5.44-13.36,6,2,9.39,9.57,7.77,15.95-3.13,12.35-20.45,15.65-33.19,15.75-12.74-.1-29.69-3.4-32.82-15.75-1.62-6.38,1.75-13.92,7.77-15.95,10.5-3.52,13.29,10.3,5.44,13.36.34-3-.66-5.31-2.85-5.51-4.79-.44-4.56,4.24-2.51,6.22,7.6,7.35,18.13-4.5,11-12-8.57-9-22.93-1.46-21.06,10.36s13.35,17.93,23.52,20.27a43.49,43.49,0,0,0,5.42.85,49.11,49.11,0,0,0,12.51,0,44,44,0,0,0,5.43-.85c10.16-2.34,21.64-8.39,23.51-20.27S914.64,402.45,906.07,411.49Zm8.91,7.85c1.46.33,1.46,2.59.6,3.71-1.07.87-2.06.61-3.29,0C912.25,421.2,912.82,418.84,915,419.34Zm-46.69,3.71c-.86-1.12-.86-3.38.6-3.71,2.16-.5,2.73,1.86,2.69,3.68C870.36,423.66,869.36,423.92,868.29,423.05Z" transform="translate(-192.5 -304.66)"/><path class="cls-3" d="M1174,623.28c-11.86.8-23.59,15.27-29.86,24.14-9.75,13.83-17,28.22-32.75,36.06-17.69,8.78-40.7,12.53-59.68,5.88,16.55.1,41.8-16.72,29.24-39.4-12.15-22-40.43-28.57-63.42-25.79-3.29.4-11.37,1.35-9.07,1.3,11.93-.26,20.24,10.59,16.28,22-3.71,10.67-17.73,19.43-28.57,19.6,5.11-1.47,10-7,10.59-11.1,1.47-10.61-11.19-21.29-19.13-26a54.84,54.84,0,0,0-14.25-6,60.32,60.32,0,0,0-15.35-2.2c-10.5-.33-28.84,1.27-41.54,9-.81-.26-1.4-.53-2.46-.83-11.5-3.24-25.45-3.29-38-1.8a52.43,52.43,0,0,0-10.43,2.16c-.75.23-1.54.54-2.34.8-12.71-7.77-31-9.36-41.55-9a60.31,60.31,0,0,0-15.34,2.2,54.89,54.89,0,0,0-14.26,6c-7.94,4.73-20.59,15.4-19.13,26,.57,4.11,5.48,9.63,10.6,11.1-10.85-.17-24.86-8.92-28.57-19.6-4-11.41,4.34-22.26,16.27-22,2.3.05-5.78-.89-9.07-1.29-23-2.79-51.27,3.82-63.42,25.79-12.55,22.68,12.7,39.49,29.24,39.39-19,6.65-42,2.9-59.67-5.88-15.78-7.84-23-22.23-32.76-36-6.26-8.88-18-23.35-29.86-24.15-5-.34-13.35,2.39-12.06,11,.8,5.29,7.18,6,10,5.51s2.49-4.58-.19-5-6.08-.17-3.89-1.79a14.27,14.27,0,0,1,11.36-2c7.13,1.57,11.86,5,16.11,9.73,8.71,9.75,14.57,20.07,22.8,30.21,8.59,10.59,21.78,18.14,34.48,22.26,16.94,5.5,40.17,3.27,56.88-3.89,1.39-.6-6-.7-8.28-.8-11.61-.5-24.86-3-31.68-13.67-6.46-10.06.7-24.26,8.49-31.28,11.32-10.2,33.56-19.43,49.5-16.34-5.28,4.08-8.41,13.43-4.58,22,6.08,13.63,22.82,20.54,37.67,18.64,1.21-.15-4.38-1-6.77-1.79-20.7-6.9-6.52-24.37,8.27-33.59,4.52-2.82,10.26-5.71,13.55-6.48,12.11-2.84,18.75-3,27.21-2.09,8.15.85,19.32,3.17,27.11,7.47-8.2,3.57-18.53,11.37-18.17,20.31.64,16.16,27.76,16.82,30.84,1.22,1.58-8-1.31-14.13-6.55-18.76,1.51-.44,3-.77,4.4-1.09,19.48-4.43,38.35.42,38.41.4l1.35.36c-5.25,4.63-8.14,10.73-6.56,18.76,3.08,15.6,30.21,14.94,30.85-1.22.35-8.94-10-16.74-18.18-20.31,7.79-4.3,19-6.62,27.11-7.47,8.46-.89,15.1-.75,27.21,2.09,3.29.77,9,3.66,13.55,6.48,14.79,9.22,29,26.69,8.28,33.58-2.39.8-8,1.64-6.78,1.8,14.85,1.89,31.6-5,37.67-18.64,3.83-8.59.7-17.94-4.58-22,15.94-3.08,38.18,6.15,49.5,16.35,7.8,7,15,21.22,8.5,31.28-6.82,10.63-20.08,13.16-31.69,13.67-2.29.1-9.67.2-8.27.8,16.7,7.15,39.94,9.39,56.87,3.89,12.7-4.12,25.9-11.67,34.49-22.26,8.22-10.14,14.09-20.46,22.79-30.22,4.26-4.76,9-8.15,16.11-9.72a14.26,14.26,0,0,1,11.36,2c2.19,1.61-1.29,1.38-3.88,1.79s-2.89,4.56-.2,5,9.17-.23,10-5.51C1187.4,625.67,1179,622.94,1174,623.28ZM870.28,639.16c5.73,7,3.16,19.5-5.28,22.32-6.83,2.29-19.35-2.58-17.21-11,1.92-7.48,10.46-12.82,17.81-15.54A13.45,13.45,0,0,1,870.28,639.16Zm61.74,11c2.15,8.39-10.37,13.26-17.21,11-8.44-2.82-11-15.31-5.28-22.32a13.4,13.4,0,0,1,4.69-4.19C921.56,637.36,930.11,642.7,932,650.18Z" transform="translate(-192.5 -304.66)"/><text class="cls-4" transform="translate(356.21 254.96) scale(1.12 1)">Company name</text></svg>